<?xml version='1.0' encoding='utf-8'?>
<svg height="222.00mm" viewBox="0.0 0.0 145.00 222.00" width="145.00mm" xmlns="http://www.w3.org/2000/svg" xmlns:cc="http://creativecommons.org/ns#" xmlns:dc="http://purl.org/dc/elements/1.1/" xmlns:inkscape="http://www.inkscape.org/namespaces/inkscape" xmlns:rdf="http://www.w3.org/1999/02/22-rdf-syntax-ns#" xmlns:svg="http://www.w3.org/2000/svg" xmlns:xlink="http://www.w3.org/1999/xlink">
<!--
ClosedBox - Fully closed box


This box is more of a building block than a finished item.
Use a vector graphics program (like Inkscape) to add holes or adjust the base
plate.

See BasedBox for variant with a base.


Created with Boxes.py (https://boxes.hackerspace-bamberg.de/)
Creation date: 2026-03-14 17:01:00
Command line (remove spaces between dashes): boxes ClosedBox - -x=55 - -y=55 - -h=55 - -outside=0 - -burn=0 - -spacing=1
Url: https://boxes.hackerspace-bamberg.de/ClosedBox?FingerJoint_style=rectangular&FingerJoint_surroundingspaces=2.0&FingerJoint_bottom_lip=0.0&FingerJoint_edge_width=1.0&FingerJoint_extra_length=0.0&FingerJoint_finger=2.0&FingerJoint_play=0.0&FingerJoint_space=2.0&FingerJoint_width=1.0&x=55&y=55&h=55&outside=0&thickness=3.0&burn=0&format=svg&labels=0&labels=1&reference=100.0&tabs=0.0&qr_code=0&inner_corners=loop&spacing=1&debug=0&language=en&render=2
Url short: https://boxes.hackerspace-bamberg.de/ClosedBox?x=55&y=55&h=55&outside=0&burn=0&spacing=1
SettingsUrl: https://boxes.hackerspace-bamberg.de/ClosedBox?FingerJoint_style=rectangular&FingerJoint_surroundingspaces=2.0&FingerJoint_bottom_lip=0.0&FingerJoint_edge_width=1.0&FingerJoint_extra_length=0.0&FingerJoint_finger=2.0&FingerJoint_play=0.0&FingerJoint_space=2.0&FingerJoint_width=1.0&x=55&y=55&h=55&outside=0&thickness=3.0&burn=0&format=svg&labels=0&labels=1&reference=100.0&tabs=0.0&qr_code=0&inner_corners=loop&spacing=1&debug=0&language=en&render=2
SettingsUrl short: https://boxes.hackerspace-bamberg.de/ClosedBox?x=55&y=55&h=55&outside=0&burn=0&spacing=1
-->
<title>ClosedBox</title>
<metadata>
<rdf:RDF><cc:Work>
<dc:title>Box - ClosedBox</dc:title>
<dc:date>2026-03-14 17:01:00</dc:date>
<dc:source>https://boxes.hackerspace-bamberg.de/ClosedBox?FingerJoint_style=rectangular&amp;FingerJoint_surroundingspaces=2.0&amp;FingerJoint_bottom_lip=0.0&amp;FingerJoint_edge_width=1.0&amp;FingerJoint_extra_length=0.0&amp;FingerJoint_finger=2.0&amp;FingerJoint_play=0.0&amp;FingerJoint_space=2.0&amp;FingerJoint_width=1.0&amp;x=55&amp;y=55&amp;h=55&amp;outside=0&amp;thickness=3.0&amp;burn=0&amp;format=svg&amp;labels=0&amp;labels=1&amp;reference=100.0&amp;tabs=0.0&amp;qr_code=0&amp;inner_corners=loop&amp;spacing=1&amp;debug=0&amp;language=en&amp;render=2</dc:source>
<dc:source>https://boxes.hackerspace-bamberg.de/ClosedBox?x=55&amp;y=55&amp;h=55&amp;outside=0&amp;burn=0&amp;spacing=1</dc:source>
<dc:description>Fully closed box

This box is more of a building block than a finished item.
Use a vector graphics program (like Inkscape) to add holes or adjust the base
plate.

See BasedBox for variant with a base.

Created with Boxes.py (https://boxes.hackerspace-bamberg.de/)
Command line: boxes ClosedBox --FingerJoint_style=rectangular --FingerJoint_surroundingspaces=2.0 --FingerJoint_bottom_lip=0.0 --FingerJoint_edge_width=1.0 --FingerJoint_extra_length=0.0 --FingerJoint_finger=2.0 --FingerJoint_play=0.0 --FingerJoint_space=2.0 --FingerJoint_width=1.0 --x=55 --y=55 --h=55 --outside=0 --thickness=3.0 --burn=0 --format=svg --labels=0 --labels=1 --reference=100.0 --tabs=0.0 --qr_code=0 --inner_corners=loop --spacing=1 --debug=0
Command line short: boxes ClosedBox --x=55 --y=55 --h=55 --outside=0 --burn=0 --spacing=1
Url: https://boxes.hackerspace-bamberg.de/ClosedBox?FingerJoint_style=rectangular&amp;FingerJoint_surroundingspaces=2.0&amp;FingerJoint_bottom_lip=0.0&amp;FingerJoint_edge_width=1.0&amp;FingerJoint_extra_length=0.0&amp;FingerJoint_finger=2.0&amp;FingerJoint_play=0.0&amp;FingerJoint_space=2.0&amp;FingerJoint_width=1.0&amp;x=55&amp;y=55&amp;h=55&amp;outside=0&amp;thickness=3.0&amp;burn=0&amp;format=svg&amp;labels=0&amp;labels=1&amp;reference=100.0&amp;tabs=0.0&amp;qr_code=0&amp;inner_corners=loop&amp;spacing=1&amp;debug=0&amp;language=en&amp;render=2
Url short: https://boxes.hackerspace-bamberg.de/ClosedBox?x=55&amp;y=55&amp;h=55&amp;outside=0&amp;burn=0&amp;spacing=1
SettingsUrl: https://boxes.hackerspace-bamberg.de/ClosedBox?FingerJoint_style=rectangular&amp;FingerJoint_surroundingspaces=2.0&amp;FingerJoint_bottom_lip=0.0&amp;FingerJoint_edge_width=1.0&amp;FingerJoint_extra_length=0.0&amp;FingerJoint_finger=2.0&amp;FingerJoint_play=0.0&amp;FingerJoint_space=2.0&amp;FingerJoint_width=1.0&amp;x=55&amp;y=55&amp;h=55&amp;outside=0&amp;thickness=3.0&amp;burn=0&amp;format=svg&amp;labels=0&amp;labels=1&amp;reference=100.0&amp;tabs=0.0&amp;qr_code=0&amp;inner_corners=loop&amp;spacing=1&amp;debug=0&amp;language=en&amp;render=2
SettingsUrl short: https://boxes.hackerspace-bamberg.de/ClosedBox?x=55&amp;y=55&amp;h=55&amp;outside=0&amp;burn=0&amp;spacing=1
</dc:description>
</cc:Work></rdf:RDF></metadata>
<g id="p-0" style="fill:none;stroke-linecap:round;stroke-linejoin:round;">
  <path d="M 10.000 212.000 H 110.000 V 202.000 H 10.000 V 212.000 Z" stroke="rgb(0,0,0)" stroke-width="0.05" />
  <text dominant-baseline="hanging" font-size="6px" style="font-family: sans-serif ; font-weight: normal; font-style: normal; fill: rgb(255,0,0)" text-anchor="middle" transform="matrix( 1.000 0.000 0.000 1.000 60.000 204.000 )">100.0mm, burn:0.00mm</text>
</g>
<g id="p-1" style="fill:none;stroke-linecap:round;stroke-linejoin:round;">
  <path d="M 13.000 199.000 H 19.500 V 196.000 H 25.500 V 199.000 H 31.500 V 196.000 H 37.500 V 199.000 H 43.500 V 196.000 H 49.500 V 199.000 H 55.500 V 196.000 H 61.500 V 199.000 H 68.000 H 71.000 V 196.000 V 189.500 H 68.000 V 183.500 H 71.000 V 177.500 H 68.000 V 171.500 H 71.000 V 165.500 H 68.000 V 159.500 H 71.000 V 153.500 H 68.000 V 147.500 H 71.000 V 141.000 V 138.000 H 68.000 H 61.500 V 141.000 H 55.500 V 138.000 H 49.500 V 141.000 H 43.500 V 138.000 H 37.500 V 141.000 H 31.500 V 138.000 H 25.500 V 141.000 H 19.500 V 138.000 H 13.000 H 10.000 V 141.000 V 147.500 H 13.000 V 153.500 H 10.000 V 159.500 H 13.000 V 165.500 H 10.000 V 171.500 H 13.000 V 177.500 H 10.000 V 183.500 H 13.000 V 189.500 H 10.000 V 196.000 V 199.000 H 13.000 Z" stroke="rgb(0,0,0)" stroke-width="0.05" />
  <text dominant-baseline="hanging" font-size="4px" style="font-family: sans-serif ; font-weight: normal; font-style: normal; fill: rgb(255,0,0)" text-anchor="middle" transform="matrix( 1.000 0.000 0.000 1.000 40.500 166.500 )">Wall 1</text>
</g>
<g id="p-2" style="fill:none;stroke-linecap:round;stroke-linejoin:round;">
  <path d="M 77.000 199.000 H 83.500 V 196.000 H 89.500 V 199.000 H 95.500 V 196.000 H 101.500 V 199.000 H 107.500 V 196.000 H 113.500 V 199.000 H 119.500 V 196.000 H 125.500 V 199.000 H 132.000 V 196.000 V 189.500 H 135.000 V 183.500 H 132.000 V 177.500 H 135.000 V 171.500 H 132.000 V 165.500 H 135.000 V 159.500 H 132.000 V 153.500 H 135.000 V 147.500 H 132.000 V 141.000 V 138.000 H 125.500 V 141.000 H 119.500 V 138.000 H 113.500 V 141.000 H 107.500 V 138.000 H 101.500 V 141.000 H 95.500 V 138.000 H 89.500 V 141.000 H 83.500 V 138.000 H 77.000 V 141.000 V 147.500 H 74.000 V 153.500 H 77.000 V 159.500 H 74.000 V 165.500 H 77.000 V 171.500 H 74.000 V 177.500 H 77.000 V 183.500 H 74.000 V 189.500 H 77.000 V 196.000 V 199.000 Z" stroke="rgb(0,0,0)" stroke-width="0.05" />
  <text dominant-baseline="hanging" font-size="4px" style="font-family: sans-serif ; font-weight: normal; font-style: normal; fill: rgb(255,0,0)" text-anchor="middle" transform="matrix( 1.000 0.000 0.000 1.000 104.500 166.500 )">Wall 2</text>
</g>
<g id="p-3" style="fill:none;stroke-linecap:round;stroke-linejoin:round;">
  <path d="M 77.000 135.000 H 83.500 V 132.000 H 89.500 V 135.000 H 95.500 V 132.000 H 101.500 V 135.000 H 107.500 V 132.000 H 113.500 V 135.000 H 119.500 V 132.000 H 125.500 V 135.000 H 132.000 V 132.000 V 125.500 H 135.000 V 119.500 H 132.000 V 113.500 H 135.000 V 107.500 H 132.000 V 101.500 H 135.000 V 95.500 H 132.000 V 89.500 H 135.000 V 83.500 H 132.000 V 77.000 V 74.000 H 125.500 V 77.000 H 119.500 V 74.000 H 113.500 V 77.000 H 107.500 V 74.000 H 101.500 V 77.000 H 95.500 V 74.000 H 89.500 V 77.000 H 83.500 V 74.000 H 77.000 V 77.000 V 83.500 H 74.000 V 89.500 H 77.000 V 95.500 H 74.000 V 101.500 H 77.000 V 107.500 H 74.000 V 113.500 H 77.000 V 119.500 H 74.000 V 125.500 H 77.000 V 132.000 V 135.000 Z" stroke="rgb(0,0,0)" stroke-width="0.05" />
  <text dominant-baseline="hanging" font-size="4px" style="font-family: sans-serif ; font-weight: normal; font-style: normal; fill: rgb(255,0,0)" text-anchor="middle" transform="matrix( 1.000 0.000 0.000 1.000 104.500 102.500 )">Wall 4</text>
</g>
<g id="p-4" style="fill:none;stroke-linecap:round;stroke-linejoin:round;">
  <path d="M 13.000 135.000 H 19.500 V 132.000 H 25.500 V 135.000 H 31.500 V 132.000 H 37.500 V 135.000 H 43.500 V 132.000 H 49.500 V 135.000 H 55.500 V 132.000 H 61.500 V 135.000 H 68.000 H 71.000 V 132.000 V 125.500 H 68.000 V 119.500 H 71.000 V 113.500 H 68.000 V 107.500 H 71.000 V 101.500 H 68.000 V 95.500 H 71.000 V 89.500 H 68.000 V 83.500 H 71.000 V 77.000 V 74.000 H 68.000 H 61.500 V 77.000 H 55.500 V 74.000 H 49.500 V 77.000 H 43.500 V 74.000 H 37.500 V 77.000 H 31.500 V 74.000 H 25.500 V 77.000 H 19.500 V 74.000 H 13.000 H 10.000 V 77.000 V 83.500 H 13.000 V 89.500 H 10.000 V 95.500 H 13.000 V 101.500 H 10.000 V 107.500 H 13.000 V 113.500 H 10.000 V 119.500 H 13.000 V 125.500 H 10.000 V 132.000 V 135.000 H 13.000 Z" stroke="rgb(0,0,0)" stroke-width="0.05" />
  <text dominant-baseline="hanging" font-size="4px" style="font-family: sans-serif ; font-weight: normal; font-style: normal; fill: rgb(255,0,0)" text-anchor="middle" transform="matrix( 1.000 0.000 0.000 1.000 40.500 102.500 )">Wall 3</text>
</g>
<g id="p-5" style="fill:none;stroke-linecap:round;stroke-linejoin:round;">
  <path d="M 13.000 68.000 H 19.500 V 71.000 H 25.500 V 68.000 H 31.500 V 71.000 H 37.500 V 68.000 H 43.500 V 71.000 H 49.500 V 68.000 H 55.500 V 71.000 H 61.500 V 68.000 H 68.000 V 61.500 H 71.000 V 55.500 H 68.000 V 49.500 H 71.000 V 43.500 H 68.000 V 37.500 H 71.000 V 31.500 H 68.000 V 25.500 H 71.000 V 19.500 H 68.000 V 13.000 H 61.500 V 10.000 H 55.500 V 13.000 H 49.500 V 10.000 H 43.500 V 13.000 H 37.500 V 10.000 H 31.500 V 13.000 H 25.500 V 10.000 H 19.500 V 13.000 H 13.000 V 19.500 H 10.000 V 25.500 H 13.000 V 31.500 H 10.000 V 37.500 H 13.000 V 43.500 H 10.000 V 49.500 H 13.000 V 55.500 H 10.000 V 61.500 H 13.000 V 68.000 Z" stroke="rgb(0,0,0)" stroke-width="0.05" />
  <text dominant-baseline="hanging" font-size="4px" style="font-family: sans-serif ; font-weight: normal; font-style: normal; fill: rgb(255,0,0)" text-anchor="middle" transform="matrix( 1.000 0.000 0.000 1.000 40.500 38.500 )">Top</text>
</g>
<g id="p-6" style="fill:none;stroke-linecap:round;stroke-linejoin:round;">
  <path d="M 77.000 68.000 H 83.500 V 71.000 H 89.500 V 68.000 H 95.500 V 71.000 H 101.500 V 68.000 H 107.500 V 71.000 H 113.500 V 68.000 H 119.500 V 71.000 H 125.500 V 68.000 H 132.000 V 61.500 H 135.000 V 55.500 H 132.000 V 49.500 H 135.000 V 43.500 H 132.000 V 37.500 H 135.000 V 31.500 H 132.000 V 25.500 H 135.000 V 19.500 H 132.000 V 13.000 H 125.500 V 10.000 H 119.500 V 13.000 H 113.500 V 10.000 H 107.500 V 13.000 H 101.500 V 10.000 H 95.500 V 13.000 H 89.500 V 10.000 H 83.500 V 13.000 H 77.000 V 19.500 H 74.000 V 25.500 H 77.000 V 31.500 H 74.000 V 37.500 H 77.000 V 43.500 H 74.000 V 49.500 H 77.000 V 55.500 H 74.000 V 61.500 H 77.000 V 68.000 Z" stroke="rgb(0,0,0)" stroke-width="0.05" />
  <text dominant-baseline="hanging" font-size="4px" style="font-family: sans-serif ; font-weight: normal; font-style: normal; fill: rgb(255,0,0)" text-anchor="middle" transform="matrix( 1.000 0.000 0.000 1.000 104.500 38.500 )">Bottom</text>
</g>
</svg>