<?xml version='1.0' encoding='utf-8'?>
<svg height="207.00mm" viewBox="0.0 0.0 135.00 207.00" width="135.00mm" xmlns="http://www.w3.org/2000/svg" xmlns:cc="http://creativecommons.org/ns#" xmlns:dc="http://purl.org/dc/elements/1.1/" xmlns:inkscape="http://www.inkscape.org/namespaces/inkscape" xmlns:rdf="http://www.w3.org/1999/02/22-rdf-syntax-ns#" xmlns:svg="http://www.w3.org/2000/svg" xmlns:xlink="http://www.w3.org/1999/xlink">
<!--
ClosedBox - Fully closed box


This box is more of a building block than a finished item.
Use a vector graphics program (like Inkscape) to add holes or adjust the base
plate.

See BasedBox for variant with a base.


Created with Boxes.py (https://boxes.hackerspace-bamberg.de/)
Creation date: 2026-03-08 17:16:30
Command line (remove spaces between dashes): boxes ClosedBox - -x=50 - -y=50 - -h=50 - -outside=0 - -burn=0.0 - -spacing=1
Url: https://boxes.hackerspace-bamberg.de/ClosedBox?FingerJoint_style=rectangular&FingerJoint_surroundingspaces=2.0&FingerJoint_bottom_lip=0.0&FingerJoint_edge_width=1.0&FingerJoint_extra_length=0.0&FingerJoint_finger=2.0&FingerJoint_play=0.0&FingerJoint_space=2.0&FingerJoint_width=1.0&x=50&y=50&h=50&outside=0&thickness=3.0&burn=0.0&format=svg&labels=0&labels=1&reference=100.0&tabs=0.0&qr_code=0&inner_corners=loop&spacing=1&debug=0&language=fr&render=2
Url short: https://boxes.hackerspace-bamberg.de/ClosedBox?x=50&y=50&h=50&outside=0&burn=0.0&spacing=1
SettingsUrl: https://boxes.hackerspace-bamberg.de/ClosedBox?FingerJoint_style=rectangular&FingerJoint_surroundingspaces=2.0&FingerJoint_bottom_lip=0.0&FingerJoint_edge_width=1.0&FingerJoint_extra_length=0.0&FingerJoint_finger=2.0&FingerJoint_play=0.0&FingerJoint_space=2.0&FingerJoint_width=1.0&x=50&y=50&h=50&outside=0&thickness=3.0&burn=0.0&format=svg&labels=0&labels=1&reference=100.0&tabs=0.0&qr_code=0&inner_corners=loop&spacing=1&debug=0&language=fr&render=2
SettingsUrl short: https://boxes.hackerspace-bamberg.de/ClosedBox?x=50&y=50&h=50&outside=0&burn=0.0&spacing=1
-->
<title>ClosedBox</title>
<metadata>
<rdf:RDF><cc:Work>
<dc:title>Box - ClosedBox</dc:title>
<dc:date>2026-03-08 17:16:30</dc:date>
<dc:source>https://boxes.hackerspace-bamberg.de/ClosedBox?FingerJoint_style=rectangular&amp;FingerJoint_surroundingspaces=2.0&amp;FingerJoint_bottom_lip=0.0&amp;FingerJoint_edge_width=1.0&amp;FingerJoint_extra_length=0.0&amp;FingerJoint_finger=2.0&amp;FingerJoint_play=0.0&amp;FingerJoint_space=2.0&amp;FingerJoint_width=1.0&amp;x=50&amp;y=50&amp;h=50&amp;outside=0&amp;thickness=3.0&amp;burn=0.0&amp;format=svg&amp;labels=0&amp;labels=1&amp;reference=100.0&amp;tabs=0.0&amp;qr_code=0&amp;inner_corners=loop&amp;spacing=1&amp;debug=0&amp;language=fr&amp;render=2</dc:source>
<dc:source>https://boxes.hackerspace-bamberg.de/ClosedBox?x=50&amp;y=50&amp;h=50&amp;outside=0&amp;burn=0.0&amp;spacing=1</dc:source>
<dc:description>Fully closed box

This box is more of a building block than a finished item.
Use a vector graphics program (like Inkscape) to add holes or adjust the base
plate.

See BasedBox for variant with a base.

Created with Boxes.py (https://boxes.hackerspace-bamberg.de/)
Command line: boxes ClosedBox --FingerJoint_style=rectangular --FingerJoint_surroundingspaces=2.0 --FingerJoint_bottom_lip=0.0 --FingerJoint_edge_width=1.0 --FingerJoint_extra_length=0.0 --FingerJoint_finger=2.0 --FingerJoint_play=0.0 --FingerJoint_space=2.0 --FingerJoint_width=1.0 --x=50 --y=50 --h=50 --outside=0 --thickness=3.0 --burn=0.0 --format=svg --labels=0 --labels=1 --reference=100.0 --tabs=0.0 --qr_code=0 --inner_corners=loop --spacing=1 --debug=0
Command line short: boxes ClosedBox --x=50 --y=50 --h=50 --outside=0 --burn=0.0 --spacing=1
Url: https://boxes.hackerspace-bamberg.de/ClosedBox?FingerJoint_style=rectangular&amp;FingerJoint_surroundingspaces=2.0&amp;FingerJoint_bottom_lip=0.0&amp;FingerJoint_edge_width=1.0&amp;FingerJoint_extra_length=0.0&amp;FingerJoint_finger=2.0&amp;FingerJoint_play=0.0&amp;FingerJoint_space=2.0&amp;FingerJoint_width=1.0&amp;x=50&amp;y=50&amp;h=50&amp;outside=0&amp;thickness=3.0&amp;burn=0.0&amp;format=svg&amp;labels=0&amp;labels=1&amp;reference=100.0&amp;tabs=0.0&amp;qr_code=0&amp;inner_corners=loop&amp;spacing=1&amp;debug=0&amp;language=fr&amp;render=2
Url short: https://boxes.hackerspace-bamberg.de/ClosedBox?x=50&amp;y=50&amp;h=50&amp;outside=0&amp;burn=0.0&amp;spacing=1
SettingsUrl: https://boxes.hackerspace-bamberg.de/ClosedBox?FingerJoint_style=rectangular&amp;FingerJoint_surroundingspaces=2.0&amp;FingerJoint_bottom_lip=0.0&amp;FingerJoint_edge_width=1.0&amp;FingerJoint_extra_length=0.0&amp;FingerJoint_finger=2.0&amp;FingerJoint_play=0.0&amp;FingerJoint_space=2.0&amp;FingerJoint_width=1.0&amp;x=50&amp;y=50&amp;h=50&amp;outside=0&amp;thickness=3.0&amp;burn=0.0&amp;format=svg&amp;labels=0&amp;labels=1&amp;reference=100.0&amp;tabs=0.0&amp;qr_code=0&amp;inner_corners=loop&amp;spacing=1&amp;debug=0&amp;language=fr&amp;render=2
SettingsUrl short: https://boxes.hackerspace-bamberg.de/ClosedBox?x=50&amp;y=50&amp;h=50&amp;outside=0&amp;burn=0.0&amp;spacing=1
</dc:description>
</cc:Work></rdf:RDF></metadata>
<g id="p-0" style="fill:none;stroke-linecap:round;stroke-linejoin:round;">
  <path d="M 10.000 197.000 H 110.000 V 187.000 H 10.000 V 197.000 Z" stroke="rgb(0,0,0)" stroke-width="0.05" />
  <text dominant-baseline="hanging" font-size="6px" style="font-family: sans-serif ; font-weight: normal; font-style: normal; fill: rgb(255,0,0)" text-anchor="middle" transform="matrix( 1.000 0.000 0.000 1.000 60.000 189.000 )">100.0mm, burn:0.00mm</text>
</g>
<g id="p-1" style="fill:none;stroke-linecap:round;stroke-linejoin:round;">
  <path d="M 13.000 184.000 H 23.000 V 181.000 H 29.000 V 184.000 H 35.000 V 181.000 H 41.000 V 184.000 H 47.000 V 181.000 H 53.000 V 184.000 H 63.000 H 66.000 V 181.000 V 171.000 H 63.000 V 165.000 H 66.000 V 159.000 H 63.000 V 153.000 H 66.000 V 147.000 H 63.000 V 141.000 H 66.000 V 131.000 V 128.000 H 63.000 H 53.000 V 131.000 H 47.000 V 128.000 H 41.000 V 131.000 H 35.000 V 128.000 H 29.000 V 131.000 H 23.000 V 128.000 H 13.000 H 10.000 V 131.000 V 141.000 H 13.000 V 147.000 H 10.000 V 153.000 H 13.000 V 159.000 H 10.000 V 165.000 H 13.000 V 171.000 H 10.000 V 181.000 V 184.000 H 13.000 Z" stroke="rgb(0,0,0)" stroke-width="0.05" />
  <text dominant-baseline="hanging" font-size="4px" style="font-family: sans-serif ; font-weight: normal; font-style: normal; fill: rgb(255,0,0)" text-anchor="middle" transform="matrix( 1.000 0.000 0.000 1.000 38.000 154.000 )">Wall 1</text>
</g>
<g id="p-2" style="fill:none;stroke-linecap:round;stroke-linejoin:round;">
  <path d="M 72.000 184.000 H 82.000 V 181.000 H 88.000 V 184.000 H 94.000 V 181.000 H 100.000 V 184.000 H 106.000 V 181.000 H 112.000 V 184.000 H 122.000 V 181.000 V 171.000 H 125.000 V 165.000 H 122.000 V 159.000 H 125.000 V 153.000 H 122.000 V 147.000 H 125.000 V 141.000 H 122.000 V 131.000 V 128.000 H 112.000 V 131.000 H 106.000 V 128.000 H 100.000 V 131.000 H 94.000 V 128.000 H 88.000 V 131.000 H 82.000 V 128.000 H 72.000 V 131.000 V 141.000 H 69.000 V 147.000 H 72.000 V 153.000 H 69.000 V 159.000 H 72.000 V 165.000 H 69.000 V 171.000 H 72.000 V 181.000 V 184.000 Z" stroke="rgb(0,0,0)" stroke-width="0.05" />
  <text dominant-baseline="hanging" font-size="4px" style="font-family: sans-serif ; font-weight: normal; font-style: normal; fill: rgb(255,0,0)" text-anchor="middle" transform="matrix( 1.000 0.000 0.000 1.000 97.000 154.000 )">Wall 2</text>
</g>
<g id="p-3" style="fill:none;stroke-linecap:round;stroke-linejoin:round;">
  <path d="M 72.000 125.000 H 82.000 V 122.000 H 88.000 V 125.000 H 94.000 V 122.000 H 100.000 V 125.000 H 106.000 V 122.000 H 112.000 V 125.000 H 122.000 V 122.000 V 112.000 H 125.000 V 106.000 H 122.000 V 100.000 H 125.000 V 94.000 H 122.000 V 88.000 H 125.000 V 82.000 H 122.000 V 72.000 V 69.000 H 112.000 V 72.000 H 106.000 V 69.000 H 100.000 V 72.000 H 94.000 V 69.000 H 88.000 V 72.000 H 82.000 V 69.000 H 72.000 V 72.000 V 82.000 H 69.000 V 88.000 H 72.000 V 94.000 H 69.000 V 100.000 H 72.000 V 106.000 H 69.000 V 112.000 H 72.000 V 122.000 V 125.000 Z" stroke="rgb(0,0,0)" stroke-width="0.05" />
  <text dominant-baseline="hanging" font-size="4px" style="font-family: sans-serif ; font-weight: normal; font-style: normal; fill: rgb(255,0,0)" text-anchor="middle" transform="matrix( 1.000 0.000 0.000 1.000 97.000 95.000 )">Wall 4</text>
</g>
<g id="p-4" style="fill:none;stroke-linecap:round;stroke-linejoin:round;">
  <path d="M 13.000 125.000 H 23.000 V 122.000 H 29.000 V 125.000 H 35.000 V 122.000 H 41.000 V 125.000 H 47.000 V 122.000 H 53.000 V 125.000 H 63.000 H 66.000 V 122.000 V 112.000 H 63.000 V 106.000 H 66.000 V 100.000 H 63.000 V 94.000 H 66.000 V 88.000 H 63.000 V 82.000 H 66.000 V 72.000 V 69.000 H 63.000 H 53.000 V 72.000 H 47.000 V 69.000 H 41.000 V 72.000 H 35.000 V 69.000 H 29.000 V 72.000 H 23.000 V 69.000 H 13.000 H 10.000 V 72.000 V 82.000 H 13.000 V 88.000 H 10.000 V 94.000 H 13.000 V 100.000 H 10.000 V 106.000 H 13.000 V 112.000 H 10.000 V 122.000 V 125.000 H 13.000 Z" stroke="rgb(0,0,0)" stroke-width="0.05" />
  <text dominant-baseline="hanging" font-size="4px" style="font-family: sans-serif ; font-weight: normal; font-style: normal; fill: rgb(255,0,0)" text-anchor="middle" transform="matrix( 1.000 0.000 0.000 1.000 38.000 95.000 )">Wall 3</text>
</g>
<g id="p-5" style="fill:none;stroke-linecap:round;stroke-linejoin:round;">
  <path d="M 13.000 63.000 H 23.000 V 66.000 H 29.000 V 63.000 H 35.000 V 66.000 H 41.000 V 63.000 H 47.000 V 66.000 H 53.000 V 63.000 H 63.000 V 53.000 H 66.000 V 47.000 H 63.000 V 41.000 H 66.000 V 35.000 H 63.000 V 29.000 H 66.000 V 23.000 H 63.000 V 13.000 H 53.000 V 10.000 H 47.000 V 13.000 H 41.000 V 10.000 H 35.000 V 13.000 H 29.000 V 10.000 H 23.000 V 13.000 H 13.000 V 23.000 H 10.000 V 29.000 H 13.000 V 35.000 H 10.000 V 41.000 H 13.000 V 47.000 H 10.000 V 53.000 H 13.000 V 63.000 Z" stroke="rgb(0,0,0)" stroke-width="0.05" />
  <text dominant-baseline="hanging" font-size="4px" style="font-family: sans-serif ; font-weight: normal; font-style: normal; fill: rgb(255,0,0)" text-anchor="middle" transform="matrix( 1.000 0.000 0.000 1.000 38.000 36.000 )">Top</text>
</g>
<g id="p-6" style="fill:none;stroke-linecap:round;stroke-linejoin:round;">
  <path d="M 72.000 63.000 H 82.000 V 66.000 H 88.000 V 63.000 H 94.000 V 66.000 H 100.000 V 63.000 H 106.000 V 66.000 H 112.000 V 63.000 H 122.000 V 53.000 H 125.000 V 47.000 H 122.000 V 41.000 H 125.000 V 35.000 H 122.000 V 29.000 H 125.000 V 23.000 H 122.000 V 13.000 H 112.000 V 10.000 H 106.000 V 13.000 H 100.000 V 10.000 H 94.000 V 13.000 H 88.000 V 10.000 H 82.000 V 13.000 H 72.000 V 23.000 H 69.000 V 29.000 H 72.000 V 35.000 H 69.000 V 41.000 H 72.000 V 47.000 H 69.000 V 53.000 H 72.000 V 63.000 Z" stroke="rgb(0,0,0)" stroke-width="0.05" />
  <text dominant-baseline="hanging" font-size="4px" style="font-family: sans-serif ; font-weight: normal; font-style: normal; fill: rgb(255,0,0)" text-anchor="middle" transform="matrix( 1.000 0.000 0.000 1.000 97.000 36.000 )">Bottom</text>
</g>
</svg>