<?xml version="1.0" encoding="UTF-8" standalone="no"?>
<svg
   width="10cm"
   height="10cm"
   viewBox="0 0 10 10"
   version="1.1"
   id="svg1"
   sodipodi:docname="contours_detour.svg"
   inkscape:version="1.4.2 (f4327f4, 2025-05-13)"
   xmlns:inkscape="http://www.inkscape.org/namespaces/inkscape"
   xmlns:sodipodi="http://sodipodi.sourceforge.net/DTD/sodipodi-0.dtd"
   xmlns="http://www.w3.org/2000/svg"
   xmlns:svg="http://www.w3.org/2000/svg">
  <defs
     id="defs1" />
  <sodipodi:namedview
     id="namedview1"
     pagecolor="#ffffff"
     bordercolor="#666666"
     borderopacity="1.0"
     inkscape:showpageshadow="2"
     inkscape:pageopacity="0.0"
     inkscape:pagecheckerboard="0"
     inkscape:deskcolor="#d1d1d1"
     inkscape:document-units="cm"
     inkscape:zoom="2.1563542"
     inkscape:cx="188.97638"
     inkscape:cy="188.97638"
     inkscape:window-width="1920"
     inkscape:window-height="1017"
     inkscape:window-x="-8"
     inkscape:window-y="-8"
     inkscape:window-maximized="1"
     inkscape:current-layer="svg1" />
  <path
     style="baseline-shift:baseline;display:inline;overflow:visible;fill:none;stroke-linecap:round;stroke-linejoin:round;enable-background:accumulate;stop-color:#000000;stop-opacity:1;opacity:1;stroke:#ff0000;stroke-opacity:1;stroke-width:0.02;stroke-dasharray:none"
     d="M 1,0.75 A 0.25,0.25 0 0 0 0.75,1 0.25,0.25 0 0 0 1,1.25 H 1.75 V 2 A 0.250025,0.250025 0 0 0 2,2.25 H 3 A 0.25,0.25 0 0 0 3.25,2 0.25,0.25 0 0 0 3,1.75 H 2.25 V 1.25 H 3 A 0.25,0.25 0 0 0 3.25,1 0.25,0.25 0 0 0 3,0.75 H 2 Z"
     id="path1" />
</svg>
