<?xml version="1.0" encoding="UTF-8" standalone="no"?>
<!DOCTYPE svg PUBLIC "-//W3C//DTD SVG 1.1//EN"
  "http://www.w3.org/Graphics/SVG/1.1/DTD/svg11.dtd">
<svg width="125.0mm" height="189.0mm"  viewBox="-0.6 -0.6 25.0 37.8" xmlns="http://www.w3.org/2000/svg">
<path id="inner_square" fill-opacity="0" stroke="blue" stroke-linecap="round" stroke-linejoin="round" stroke-width="0.05"
d="M0 0 L11 0 L11 11 L0 11 L0 0" />
<g transform="translate(12.8 0)"><use xlink:href="#inner_square" /></g>
<g transform="translate(0 12.8)"><use xlink:href="#inner_square" /></g>
<g transform="translate(12.8 12.8)"><use xlink:href="#inner_square" /></g>
<g transform="translate(0 25.6)"><use xlink:href="#inner_square" /></g>
<g transform="translate(12.8 25.6)"><use xlink:href="#inner_square" /></g>
<g transform="translate(0 25.6)">
<path id="frontx" fill-opacity="0" stroke="black" stroke-linecap="round" stroke-linejoin="round" stroke-width="1.4"
d="M1.5 1.5 l0 1 M1.5 2.5 l0 1 M1.5 5.5 l0 1 M1.5 6.5 l0 1 M3.5 3.5 l0 1 M3.5 4.5 l0 1 M3.5 7.5 l0 1 M3.5 8.5 l0 1 M5.5 1.5 l0 1 M5.5 2.5 l0 1 M5.5 3.5 l0 1 M5.5 4.5 l0 1 M5.5 7.5 l0 1 M5.5 8.5 l0 1 M7.5 3.5 l0 1 M7.5 4.5 l0 1 M7.5 5.5 l0 1 M7.5 6.5 l0 1 M7.5 7.5 l0 1 M7.5 8.5 l0 1 M9.5 1.5 l0 1 M9.5 2.5 l0 1 M9.5 5.5 l0 1 M9.5 6.5 l0 1 M9.5 7.5 l0 1 M9.5 8.5 l0 1 M1.5 1.5 l1 0 M2.5 1.5 l1 0 M3.5 1.5 l1 0 M4.5 1.5 l1 0 M7.5 1.5 l1 0 M8.5 1.5 l1 0 M7.5 3.5 l1 0 M8.5 3.5 l1 0 M1.5 5.5 l1 0 M2.5 5.5 l1 0 M3.5 5.5 l1 0 M4.5 5.5 l1 0 M7.5 5.5 l1 0 M8.5 5.5 l1 0 M1.5 7.5 l1 0 M2.5 7.5 l1 0 M5.5 7.5 l1 0 M6.5 7.5 l1 0 M1.5 9.5 l1 0 M2.5 9.5 l1 0 M3.5 9.5 l1 0 M4.5 9.5 l1 0 " />
</g>
<g transform="translate(0 12.8) scale(-1 1) translate(-11 0)"><use xlink:href="#frontx" /></g>
<g transform="translate(12.8 12.8)">
<path id="fronty" fill-opacity="0" stroke="black" stroke-linecap="round" stroke-linejoin="round" stroke-width="1.4"
d="M1.5 3.5 l0 1 M1.5 4.5 l0 1 M1.5 5.5 l0 1 M1.5 6.5 l0 1 M3.5 1.5 l0 1 M3.5 2.5 l0 1 M3.5 3.5 l0 1 M3.5 4.5 l0 1 M5.5 3.5 l0 1 M5.5 4.5 l0 1 M5.5 5.5 l0 1 M5.5 6.5 l0 1 M7.5 1.5 l0 1 M7.5 2.5 l0 1 M7.5 7.5 l0 1 M7.5 8.5 l0 1 M9.5 3.5 l0 1 M9.5 4.5 l0 1 M9.5 5.5 l0 1 M9.5 6.5 l0 1 M9.5 7.5 l0 1 M9.5 8.5 l0 1 M1.5 1.5 l1 0 M2.5 1.5 l1 0 M5.5 1.5 l1 0 M6.5 1.5 l1 0 M7.5 1.5 l1 0 M8.5 1.5 l1 0 M5.5 3.5 l1 0 M6.5 3.5 l1 0 M7.5 3.5 l1 0 M8.5 3.5 l1 0 M1.5 5.5 l1 0 M2.5 5.5 l1 0 M7.5 5.5 l1 0 M8.5 5.5 l1 0 M1.5 7.5 l1 0 M2.5 7.5 l1 0 M3.5 7.5 l1 0 M4.5 7.5 l1 0 M7.5 7.5 l1 0 M8.5 7.5 l1 0 M1.5 9.5 l1 0 M2.5 9.5 l1 0 M3.5 9.5 l1 0 M4.5 9.5 l1 0 M5.5 9.5 l1 0 M6.5 9.5 l1 0 " />
</g>
<g transform="translate(12.8 25.6) scale(-1 1) translate(-11 0)"><use xlink:href="#fronty" /></g>
<g transform="translate(0 0)">
<path id="frontz" fill-opacity="0" stroke="black" stroke-linecap="round" stroke-linejoin="round" stroke-width="1.4"
d="M1.5 1.5 l0 1 M1.5 2.5 l0 1 M1.5 3.5 l0 1 M1.5 4.5 l0 1 M1.5 7.5 l0 1 M1.5 8.5 l0 1 M3.5 1.5 l0 1 M3.5 2.5 l0 1 M5.5 5.5 l0 1 M5.5 6.5 l0 1 M7.5 1.5 l0 1 M7.5 2.5 l0 1 M7.5 3.5 l0 1 M7.5 4.5 l0 1 M9.5 1.5 l0 1 M9.5 2.5 l0 1 M9.5 5.5 l0 1 M9.5 6.5 l0 1 M9.5 7.5 l0 1 M9.5 8.5 l0 1 M1.5 1.5 l1 0 M2.5 1.5 l1 0 M3.5 1.5 l1 0 M4.5 1.5 l1 0 M5.5 1.5 l1 0 M6.5 1.5 l1 0 M7.5 1.5 l1 0 M8.5 1.5 l1 0 M3.5 3.5 l1 0 M4.5 3.5 l1 0 M1.5 5.5 l1 0 M2.5 5.5 l1 0 M3.5 5.5 l1 0 M4.5 5.5 l1 0 M1.5 7.5 l1 0 M2.5 7.5 l1 0 M3.5 7.5 l1 0 M4.5 7.5 l1 0 M7.5 7.5 l1 0 M8.5 7.5 l1 0 M1.5 9.5 l1 0 M2.5 9.5 l1 0 M3.5 9.5 l1 0 M4.5 9.5 l1 0 M5.5 9.5 l1 0 M6.5 9.5 l1 0 M7.5 9.5 l1 0 M8.5 9.5 l1 0 " />
</g>
<g transform="translate(12.8 0) scale(-1 1) translate(-11 0)"><use xlink:href="#frontz" /></g>
<circle id="start_circle" fill="black" cx="0.5" cy="0.5" r="0.5" />
<g transform="translate(0 25.6)"><use xlink:href="#start_circle" /></g>
<g transform="translate(12.8 12.8)"><use xlink:href="#start_circle" /></g>
<g transform="translate(12.8 0)"><rect id="end_square" fill="black" x="0" y="10" width="1" height="1" /></g>
<g transform="translate(0 12.8)"><use xlink:href="#end_square" /></g>
<g transform="translate(12.8 25.6)"><use xlink:href="#end_square" /></g>
</svg>
